# Blender v2.77 (sub 0) OBJ File: 'stonesblend.blend'
# www.blender.org
mtllib stone_05.mtl
o Stone_05
v 1.187417 -0.120845 -4.773137
v 4.876474 -0.120845 1.113036
v -1.009699 -0.120845 4.802093
v -3.808927 -0.120845 0.335710
v -3.487725 -0.120845 -1.843072
v -3.686957 3.440263 -0.800591
v 0.933247 3.278167 -3.969816
v 0.886872 3.440263 -3.667159
v 3.521571 2.267582 0.720618
v 3.266003 2.499407 0.689490
v -0.947674 2.267582 3.946797
v -0.864269 2.499407 3.703223
v 3.336128 -0.120845 4.087332
v 2.603607 2.499407 3.326125
v 2.689689 2.267582 3.463476
vn 0.000000 -1.000000 0.000000
vn 0.141200 0.308600 0.940700
vn 0.839700 0.267000 -0.472900
vn 0.689200 0.687000 -0.230200
vn 0.093100 0.632400 0.769000
vn -0.537100 0.183400 -0.823400
vn 0.111100 0.988200 0.105700
vn -0.828100 0.200800 0.523400
vn -0.989200 -0.012700 -0.145800
vn -0.304300 0.819500 -0.485600
vn -0.533700 0.696300 0.479900
vn 0.836400 0.424300 0.347000
vn 0.749700 0.628100 0.208300
vn 0.020900 0.981200 0.191900
usemtl vertex.002
s off
f 4//1 5//1 1//1 2//1 13//1 3//1
f 15//2 11//2 3//2 13//2
f 7//3 9//3 2//3 1//3
f 8//4 10//4 9//4 7//4
f 14//5 12//5 11//5 15//5
f 6//6 7//6 1//6 5//6
f 14//7 10//7 8//7 6//7
f 11//8 6//8 4//8 3//8
f 4//9 6//9 5//9
f 6//10 8//10 7//10
f 12//11 6//11 11//11
f 9//12 15//12 13//12 2//12
f 10//13 14//13 15//13 9//13
f 12//14 14//14 6//14
