# Blender v2.77 (sub 0) OBJ File: 'stonesblend.blend'
# www.blender.org
mtllib stone_01.mtl
o Stone_01
v 1.393616 11.586152 -0.290151
v -0.729262 11.815596 -1.314364
v -0.440837 12.898301 0.456187
v -2.803481 7.470547 -2.506383
v 3.943767 1.089306 -1.273186
v 2.925708 6.604409 2.431132
v -3.280870 7.166670 1.651464
v 0.349514 5.291219 -2.555789
v 2.251329 -0.167318 1.530850
v -2.621652 -0.216993 0.492836
v 1.611457 -0.191525 -1.519643
v -2.360559 0.195216 -2.699883
v -3.949853 1.150483 0.672006
v -1.205301 0.297491 2.204914
v 2.724589 0.909648 3.116089
vn 0.486900 -0.868300 -0.095200
vn 0.339800 0.776700 -0.530300
vn 0.965000 0.243600 -0.097400
vn -0.098400 0.249600 0.963300
vn -0.908400 -0.044300 -0.415600
vn 0.126900 0.205600 -0.970400
vn 0.534000 0.206500 -0.819900
vn -0.505600 -0.083600 0.858700
vn -0.719100 -0.679300 -0.146500
vn 0.963500 -0.001800 0.267600
vn -0.112800 0.122600 0.986000
vn -0.227300 0.009800 0.973800
vn -0.986500 0.126600 -0.104000
vn 0.612600 0.515600 0.599100
vn 0.002800 0.026800 -0.999600
vn 0.272300 -0.117800 -0.955000
vn 0.442800 0.237700 -0.864500
vn 0.181000 -0.142300 -0.973100
vn -0.001600 -0.827000 0.562300
vn -0.022800 -0.997900 -0.060600
vn 0.766900 -0.613600 0.187900
vn -0.061500 -0.940700 0.333500
vn -0.525600 -0.590700 0.612300
vn -0.899600 0.430800 -0.071800
vn -0.879000 0.457000 -0.136300
usemtl vertex.002
s off
f 5//1 9//1 11//1
f 3//2 1//2 2//2
f 1//3 6//3 5//3
f 3//4 7//4 6//4
f 4//5 12//5 13//5
f 2//6 8//6 4//6
f 1//7 5//7 8//7
f 7//8 13//8 14//8
f 13//9 12//9 10//9
f 6//10 15//10 5//10
f 6//11 7//11 15//11
f 7//12 14//12 15//12
f 7//13 4//13 13//13
f 1//14 3//14 6//14
f 4//15 8//15 12//15
f 8//16 11//16 12//16
f 2//17 1//17 8//17
f 8//18 5//18 11//18
f 15//19 14//19 9//19
f 11//20 9//20 10//20 12//20
f 5//21 15//21 9//21
f 10//22 9//22 14//22
f 13//23 10//23 14//23
f 7//24 3//24 4//24
f 3//25 2//25 4//25
