# Blender v2.77 (sub 0) OBJ File: 'stonesblend.blend'
# www.blender.org
mtllib stone_06.mtl
o Stone_06
v -4.079124 -0.144394 -4.230947
v 4.221211 -0.144394 -4.230947
v 4.221211 -0.144394 4.069389
v -2.077020 -0.144394 4.069389
v -4.079124 -0.144394 2.361665
v -3.150079 4.110654 3.224872
v -3.427079 3.916970 -3.463873
v -3.150079 4.110654 -3.224872
v 2.964167 2.709457 -3.108173
v 2.770483 2.986457 -2.869173
v 3.394619 2.709457 3.463873
v 3.200935 2.986457 3.224872
vn 0.000000 -1.000000 -0.000000
vn 0.938200 0.345000 -0.027200
vn 0.045300 0.267000 -0.962600
vn 0.170900 0.687000 -0.706300
vn 0.818300 0.572100 -0.055600
vn -0.982900 0.183400 0.017800
vn 0.180400 0.983600 -0.006200
vn 0.003700 0.200800 0.979600
vn -0.648900 -0.012700 0.760800
vn -0.573000 0.819500 0.000000
vn 0.123200 0.696300 0.707100
usemtl vertex.002
s off
f 4//1 5//1 1//1 2//1 3//1
f 9//2 11//2 3//2 2//2
f 7//3 9//3 2//3 1//3
f 8//4 10//4 9//4 7//4
f 10//5 12//5 11//5 9//5
f 6//6 7//6 1//6 5//6
f 12//7 10//7 8//7 6//7
f 11//8 6//8 4//8 3//8
f 4//9 6//9 5//9
f 6//10 8//10 7//10
f 12//11 6//11 11//11
