# Blender v2.77 (sub 0) OBJ File: 'stonesblend.blend'
# www.blender.org
mtllib stone_03.mtl
o Stone_03
v -1.642059 0.000000 1.147164
v -1.642059 0.000000 -1.147162
v 1.642065 0.000000 -1.147162
v 1.642065 0.000000 1.147164
v 0.000003 7.250138 0.000001
v 0.000003 0.000000 -1.441318
v -2.063118 0.000000 0.000001
v -1.080221 6.183017 0.798140
v 2.063125 0.000000 0.000001
v 0.000003 0.000000 1.441320
v -1.080221 6.183017 -0.798137
v 1.080227 5.439131 -0.798137
v 1.080227 5.439131 0.798139
v 0.000003 0.000000 0.000001
v -2.186365 1.504541 1.562344
v -2.186365 1.504541 -1.562342
v 2.186371 0.907099 -1.562342
v 2.186371 0.907099 1.562344
v -2.524534 1.504541 0.641015
v -2.524534 1.504541 -0.641013
v -0.867565 1.504541 -1.798590
v 0.867571 0.907099 -1.798590
v 2.524540 0.907099 -0.641013
v 2.524540 0.907099 0.641015
v 0.867571 0.907099 1.798592
v -0.867565 1.504541 1.798592
vn -0.860900 -0.398700 -0.316000
vn -0.956100 -0.293200 0.000000
vn -0.860900 -0.398700 0.316000
vn 0.000000 -1.000000 0.000000
vn -0.702800 0.711400 0.000000
vn 0.164700 0.478400 -0.862600
vn 0.858800 0.512300 0.000000
vn 0.164700 0.478400 0.862600
vn -0.167200 -0.318000 -0.933200
vn -0.097400 -0.282700 -0.954200
vn 0.154100 -0.486200 -0.860200
vn 0.761500 -0.584800 -0.279500
vn 0.891300 -0.453400 -0.000000
vn 0.761500 -0.584800 0.279500
vn 0.154100 -0.486200 0.860200
vn -0.097400 -0.282700 0.954200
vn -0.167200 -0.318000 0.933200
vn -0.904400 0.268100 -0.332000
vn -0.955500 0.295000 0.000000
vn -0.904400 0.268100 0.332000
vn -0.172800 0.198400 -0.964800
vn 0.072900 0.211700 -0.974600
vn 0.172600 0.204600 -0.963500
vn 0.902300 0.276100 -0.331200
vn 0.952800 0.303600 0.000000
vn 0.902300 0.276100 0.331200
vn 0.172600 0.204600 0.963500
vn 0.072900 0.211700 0.974600
vn -0.172800 0.198400 0.964800
usemtl vertex.002
s off
f 16//1 2//1 7//1 20//1
f 19//2 20//2 7//2
f 19//3 7//3 1//3 15//3
f 7//4 2//4 6//4 14//4
f 14//4 6//4 3//4 9//4
f 1//4 7//4 14//4 10//4
f 10//4 14//4 9//4 4//4
f 5//5 11//5 8//5
f 5//6 12//6 11//6
f 5//7 13//7 12//7
f 5//8 8//8 13//8
f 21//9 6//9 2//9 16//9
f 21//10 22//10 6//10
f 17//11 3//11 6//11 22//11
f 23//12 9//12 3//12 17//12
f 23//13 24//13 9//13
f 18//14 4//14 9//14 24//14
f 25//15 10//15 4//15 18//15
f 25//16 26//16 10//16
f 15//17 1//17 10//17 26//17
f 11//18 16//18 20//18
f 8//19 11//19 20//19 19//19
f 8//20 19//20 15//20
f 11//21 21//21 16//21
f 11//22 12//22 22//22 21//22
f 12//23 17//23 22//23
f 12//24 23//24 17//24
f 12//25 13//25 24//25 23//25
f 13//26 18//26 24//26
f 13//27 25//27 18//27
f 13//28 8//28 26//28 25//28
f 8//29 15//29 26//29
